<svg class="svg-icon" style="width: 1em; height: 1em;vertical-align: middle;fill: currentColor;overflow: hidden;" viewBox="0 0 1024 1024" version="1.1" xmlns="http://www.w3.org/2000/svg"><path d="M159.945829 442.717054c-23.190165 16.933671-40.024575 28.695552-56.262398 41.219797-15.796778 12.18246-32.160467 17.202801-46.209438-0.25992-14.994506-18.62315-3.038196-32.477692 12.295024-43.85481 118.541837-87.940888 237.161445-175.779446 355.741144-263.676331 24.353664-18.056238 48.943712-35.81981 72.816422-54.486962 15.728216-12.308327 29.671787-11.830443 45.141106 0.511653 137.201825 109.516276 274.708596 218.671325 411.866419 328.23672 20.35049 16.254196 23.279193 30.593785 10.209526 44.055378-15.824407 16.295128-31.252795 10.233062-46.459125-2.194992-15.899108-13.015432-32.362059-25.360598-53.224202-41.62605-1.075495 12.755512-2.335185 20.729114-2.341325 28.695552-0.122797 123.494639-0.068562 246.998487-0.099261 370.493126-0.020466 58.169841-3.464915 61.522192-62.822814 61.501726-60.012815-0.020466-120.026654-0.051165-180.042539-0.020466-37.314861 0.010233-45.64969-7.79964-45.776579-44.281529-0.187265-56.562227-0.969071-113.155153 0.347924-169.693844 0.49835-21.582551-7.270591-28.186969-27.825742-26.876114-22.329565 1.416256-44.810578 0.935302-67.201541 0.334621-15.660678-0.409322-20.977777 6.28003-20.824281 21.497617 0.546446 56.565297 0.242524 113.13878 0.242524 169.707147-0.010233 41.636283-7.523347 49.291636-48.288796 49.301869-64.812121 0.010233-129.628336 0.061398-194.447621-0.010233-51.381228-0.044002-56.791447-5.324262-56.80475-55.456033-0.040932-125.884059-0.020466-251.777327-0.030699-377.664455L159.944805 442.717054"  /></svg>